{
    "asset" : {
        "generator" : "Khronos glTF Blender I/O v1.4.40",
        "version" : "2.0"
    },
    "scene" : 0,
    "scenes" : [
        {
            "name" : "Scene",
            "nodes" : [
                0,
                3
            ]
        }
    ],
    "nodes" : [
        {
            "name" : "Camera",
            "rotation" : [
                0.483536034822464,
                0.33687159419059753,
                -0.20870360732078552,
                0.7804827094078064
            ],
            "translation" : [
                7.358891487121582,
                4.958309173583984,
                6.925790786743164
            ]
        },
        {
            "mesh" : 0,
            "name" : "Plane",
            "rotation" : [
                0.7092540860176086,
                0,
                0,
                0.7049529552459717
            ],
            "scale" : [
                0.5589331388473511,
                5.743223667144775,
                8.940632820129395
            ],
            "translation" : [
                0.18727192282676697,
                10.144580841064453,
                0.6541410088539124
            ]
        },
        {
            "children" : [
                1
            ],
            "mesh" : 1,
            "name" : "Blade",
            "scale" : [
                1.2499135732650757,
                0.11184792220592499,
                1.7134206295013428
            ],
            "translation" : [
                -0.035110801458358765,
                1.0542501211166382,
                -0.15367844700813293
            ]
        },
        {
            "children" : [
                2
            ],
            "mesh" : 2,
            "name" : "Handle",
            "rotation" : [
                0.011970056220889091,
                0,
                0,
                0.99992835521698
            ],
            "scale" : [
                0.33224862813949585,
                1,
                0.10162247717380524
            ]
        }
    ],
    "animations" : [
        {
            "channels" : [
                {
                    "sampler" : 0,
                    "target" : {
                        "node" : 1,
                        "path" : "translation"
                    }
                },
                {
                    "sampler" : 1,
                    "target" : {
                        "node" : 1,
                        "path" : "rotation"
                    }
                }
            ],
            "name" : "PlaneAction",
            "samplers" : [
                {
                    "input" : 11,
                    "interpolation" : "LINEAR",
                    "output" : 12
                },
                {
                    "input" : 11,
                    "interpolation" : "LINEAR",
                    "output" : 13
                }
            ]
        },
        {
            "channels" : [
                {
                    "sampler" : 0,
                    "target" : {
                        "node" : 3,
                        "path" : "translation"
                    }
                },
                {
                    "sampler" : 1,
                    "target" : {
                        "node" : 3,
                        "path" : "rotation"
                    }
                }
            ],
            "name" : "SlashLeftToRightHorizontal",
            "samplers" : [
                {
                    "input" : 14,
                    "interpolation" : "LINEAR",
                    "output" : 15
                },
                {
                    "input" : 14,
                    "interpolation" : "LINEAR",
                    "output" : 16
                }
            ]
        },
        {
            "channels" : [
                {
                    "sampler" : 0,
                    "target" : {
                        "node" : 3,
                        "path" : "translation"
                    }
                },
                {
                    "sampler" : 1,
                    "target" : {
                        "node" : 3,
                        "path" : "rotation"
                    }
                }
            ],
            "name" : "SlashRightToLeftHorizontal",
            "samplers" : [
                {
                    "input" : 17,
                    "interpolation" : "LINEAR",
                    "output" : 18
                },
                {
                    "input" : 17,
                    "interpolation" : "LINEAR",
                    "output" : 19
                }
            ]
        },
        {
            "channels" : [
                {
                    "sampler" : 0,
                    "target" : {
                        "node" : 2,
                        "path" : "translation"
                    }
                },
                {
                    "sampler" : 1,
                    "target" : {
                        "node" : 2,
                        "path" : "rotation"
                    }
                }
            ],
            "name" : "BladeAction",
            "samplers" : [
                {
                    "input" : 11,
                    "interpolation" : "LINEAR",
                    "output" : 20
                },
                {
                    "input" : 11,
                    "interpolation" : "LINEAR",
                    "output" : 21
                }
            ]
        }
    ],
    "materials" : [
        {
            "doubleSided" : true,
            "name" : "Material.002",
            "pbrMetallicRoughness" : {
                "baseColorTexture" : {
                    "index" : 0,
                    "texCoord" : 0
                },
                "roughnessFactor" : 0.5
            }
        },
        {
            "doubleSided" : true,
            "emissiveFactor" : [
                1,
                1,
                1
            ],
            "name" : "Material.001",
            "pbrMetallicRoughness" : {
                "baseColorFactor" : [
                    0.800000011920929,
                    0.800000011920929,
                    0.800000011920929,
                    1
                ],
                "metallicFactor" : 0,
                "roughnessFactor" : 0.5
            }
        }
    ],
    "meshes" : [
        {
            "name" : "Plane.001",
            "primitives" : [
                {
                    "attributes" : {
                        "POSITION" : 0,
                        "NORMAL" : 1,
                        "TEXCOORD_0" : 2
                    },
                    "indices" : 3,
                    "material" : 0
                }
            ]
        },
        {
            "name" : "Cube.007",
            "primitives" : [
                {
                    "attributes" : {
                        "POSITION" : 4,
                        "NORMAL" : 5,
                        "TEXCOORD_0" : 6
                    },
                    "indices" : 7
                }
            ]
        },
        {
            "name" : "Cube.006",
            "primitives" : [
                {
                    "attributes" : {
                        "POSITION" : 8,
                        "NORMAL" : 9,
                        "TEXCOORD_0" : 10
                    },
                    "indices" : 7,
                    "material" : 1
                }
            ]
        }
    ],
    "textures" : [
        {
            "sampler" : 0,
            "source" : 0
        }
    ],
    "images" : [
        {
            "bufferView" : 4,
            "mimeType" : "image/jpeg",
            "name" : "metal_blue-l-color"
        }
    ],
    "accessors" : [
        {
            "bufferView" : 0,
            "componentType" : 5126,
            "count" : 184,
            "max" : [
                4.986276626586914,
                0,
                1
            ],
            "min" : [
                -1.6438677310943604,
                -0.19838866591453552,
                -9
            ],
            "type" : "VEC3"
        },
        {
            "bufferView" : 1,
            "componentType" : 5126,
            "count" : 184,
            "type" : "VEC3"
        },
        {
            "bufferView" : 2,
            "componentType" : 5126,
            "count" : 184,
            "type" : "VEC2"
        },
        {
            "bufferView" : 3,
            "componentType" : 5123,
            "count" : 270,
            "type" : "SCALAR"
        },
        {
            "bufferView" : 5,
            "componentType" : 5126,
            "count" : 24,
            "max" : [
                1,
                1,
                1
            ],
            "min" : [
                -1,
                -1,
                -1
            ],
            "type" : "VEC3"
        },
        {
            "bufferView" : 6,
            "componentType" : 5126,
            "count" : 24,
            "type" : "VEC3"
        },
        {
            "bufferView" : 7,
            "componentType" : 5126,
            "count" : 24,
            "type" : "VEC2"
        },
        {
            "bufferView" : 8,
            "componentType" : 5123,
            "count" : 36,
            "type" : "SCALAR"
        },
        {
            "bufferView" : 9,
            "componentType" : 5126,
            "count" : 24,
            "max" : [
                1,
                1,
                1
            ],
            "min" : [
                -1,
                -1,
                -1
            ],
            "type" : "VEC3"
        },
        {
            "bufferView" : 10,
            "componentType" : 5126,
            "count" : 24,
            "type" : "VEC3"
        },
        {
            "bufferView" : 11,
            "componentType" : 5126,
            "count" : 24,
            "type" : "VEC2"
        },
        {
            "bufferView" : 12,
            "componentType" : 5126,
            "count" : 16,
            "max" : [
                0.625
            ],
            "min" : [
                0
            ],
            "type" : "SCALAR"
        },
        {
            "bufferView" : 13,
            "componentType" : 5126,
            "count" : 16,
            "type" : "VEC3"
        },
        {
            "bufferView" : 14,
            "componentType" : 5126,
            "count" : 16,
            "type" : "VEC4"
        },
        {
            "bufferView" : 15,
            "componentType" : 5126,
            "count" : 12,
            "max" : [
                0.4583333333333333
            ],
            "min" : [
                0
            ],
            "type" : "SCALAR"
        },
        {
            "bufferView" : 16,
            "componentType" : 5126,
            "count" : 12,
            "type" : "VEC3"
        },
        {
            "bufferView" : 17,
            "componentType" : 5126,
            "count" : 12,
            "type" : "VEC4"
        },
        {
            "bufferView" : 18,
            "componentType" : 5126,
            "count" : 14,
            "max" : [
                0.5416666666666666
            ],
            "min" : [
                0
            ],
            "type" : "SCALAR"
        },
        {
            "bufferView" : 19,
            "componentType" : 5126,
            "count" : 14,
            "type" : "VEC3"
        },
        {
            "bufferView" : 20,
            "componentType" : 5126,
            "count" : 14,
            "type" : "VEC4"
        },
        {
            "bufferView" : 21,
            "componentType" : 5126,
            "count" : 16,
            "type" : "VEC3"
        },
        {
            "bufferView" : 22,
            "componentType" : 5126,
            "count" : 16,
            "type" : "VEC4"
        }
    ],
    "bufferViews" : [
        {
            "buffer" : 0,
            "byteLength" : 2208,
            "byteOffset" : 0
        },
        {
            "buffer" : 0,
            "byteLength" : 2208,
            "byteOffset" : 2208
        },
        {
            "buffer" : 0,
            "byteLength" : 1472,
            "byteOffset" : 4416
        },
        {
            "buffer" : 0,
            "byteLength" : 540,
            "byteOffset" : 5888
        },
        {
            "buffer" : 0,
            "byteLength" : 101984,
            "byteOffset" : 6428
        },
        {
            "buffer" : 0,
            "byteLength" : 288,
            "byteOffset" : 108412
        },
        {
            "buffer" : 0,
            "byteLength" : 288,
            "byteOffset" : 108700
        },
        {
            "buffer" : 0,
            "byteLength" : 192,
            "byteOffset" : 108988
        },
        {
            "buffer" : 0,
            "byteLength" : 72,
            "byteOffset" : 109180
        },
        {
            "buffer" : 0,
            "byteLength" : 288,
            "byteOffset" : 109252
        },
        {
            "buffer" : 0,
            "byteLength" : 288,
            "byteOffset" : 109540
        },
        {
            "buffer" : 0,
            "byteLength" : 192,
            "byteOffset" : 109828
        },
        {
            "buffer" : 0,
            "byteLength" : 64,
            "byteOffset" : 110020
        },
        {
            "buffer" : 0,
            "byteLength" : 192,
            "byteOffset" : 110084
        },
        {
            "buffer" : 0,
            "byteLength" : 256,
            "byteOffset" : 110276
        },
        {
            "buffer" : 0,
            "byteLength" : 48,
            "byteOffset" : 110532
        },
        {
            "buffer" : 0,
            "byteLength" : 144,
            "byteOffset" : 110580
        },
        {
            "buffer" : 0,
            "byteLength" : 192,
            "byteOffset" : 110724
        },
        {
            "buffer" : 0,
            "byteLength" : 56,
            "byteOffset" : 110916
        },
        {
            "buffer" : 0,
            "byteLength" : 168,
            "byteOffset" : 110972
        },
        {
            "buffer" : 0,
            "byteLength" : 224,
            "byteOffset" : 111140
        },
        {
            "buffer" : 0,
            "byteLength" : 192,
            "byteOffset" : 111364
        },
        {
            "buffer" : 0,
            "byteLength" : 256,
            "byteOffset" : 111556
        }
    ],
    "samplers" : [
        {
            "magFilter" : 9729,
            "minFilter" : 9986
        }
    ],
    "buffers" : [
        {
            "byteLength" : 111812,
            "uri" : "data:application/octet-stream;base64,"
        }
    ]
}
